<?xml version="1.0" standalone="no"?><!DOCTYPE svg PUBLIC "-//W3C//DTD SVG 1.1//EN" "http://www.w3.org/Graphics/SVG/1.1/DTD/svg11.dtd"><svg t="1736866088874" class="icon" viewBox="0 0 1024 1024" version="1.1" xmlns="http://www.w3.org/2000/svg" p-id="15689" xmlns:xlink="http://www.w3.org/1999/xlink" width="200" height="200"><path d="M512 32C246.4 32 32 246.4 32 512s214.4 480 480 480 480-214.4 480-480S777.6 32 512 32z m251.2 246.4c-1.6 8-80 412.8-83.2 428.8-3.2 19.2-20.8 30.4-38.4 24-12.8-4.8-134.4-41.6-161.6-51.2-3.2-1.6-4.8-4.8-3.2-8l4.8-14.4c1.6-3.2 4.8-4.8 6.4-3.2 28.8 8 155.2 48 160 49.6 3.2 1.6 6.4 0 6.4-4.8 1.6-4.8 65.6-337.6 76.8-390.4 0-1.6-1.6-3.2-3.2-1.6-36.8 43.2-273.6 320-276.8 323.2-3.2 4.8-8 14.4-6.4 22.4v113.6c0 4.8-3.2 8-8 8h-17.6v-123.2c0-16 6.4-28.8 16-41.6 9.6-11.2 228.8-265.6 264-307.2 1.6-1.6 0-3.2-1.6-1.6l-464 248c-4.8 1.6-3.2 9.6 1.6 11.2l136 43.2c3.2 1.6 4.8 4.8 3.2 8l-6.4 12.8c-1.6 3.2-4.8 4.8-8 3.2-27.2-9.6-152-49.6-166.4-54.4-16-4.8-16-25.6 1.6-35.2 19.2-9.6 534.4-284.8 534.4-284.8l1.6-1.6h1.6c3.2-3.2 12.8-6.4 24 1.6 9.6 6.4 8 17.6 6.4 25.6z" fill="#1296db" p-id="15690"></path></svg>