<?xml version="1.0" standalone="no"?><!DOCTYPE svg PUBLIC "-//W3C//DTD SVG 1.1//EN" "http://www.w3.org/Graphics/SVG/1.1/DTD/svg11.dtd">
<svg width="24" height="24" viewBox="-36 -28 72 56" xmlns="http://www.w3.org/2000/svg">
  <path fill="#ffffff" d="M19.758-12.702c-.74-.74-1.92-.78-2.7-.12l-.13.12-11.31 11.31c-.74.74-.78 1.91-.12 2.7l.12.13 11.31 11.31c.74.74 1.91.78 2.7.12l.13-.12 2.83-2.83c.74-.74.78-1.91.11-2.7l-.11-.13-7.07-7.07 7.07-7.07c.74-.74.78-1.91.11-2.7l-.11-.13-2.83-2.82zM-19.762-12.702l-2.82 2.82c-.79.79-.79 2.05 0 2.83l7.07 7.07-7.07 7.07c-.79.79-.79 2.05 0 2.83l2.82 2.83c.79.78 2.05.78 2.83 0l11.32-11.31c.78-.78.78-2.05 0-2.83l-11.32-11.31c-.78-.79-2.04-.79-2.83 0zM28-28c4.42 0 8 3.58 8 8v40c0 4.42-3.58 8-8 8h-56c-4.42 0-8-3.58-8-8v-40c0-4.42 3.58-8 8-8h56z"/>
</svg> 