<?xml version="1.0" standalone="no"?><!DOCTYPE svg PUBLIC "-//W3C//DTD SVG 1.1//EN" "http://www.w3.org/Graphics/SVG/1.1/DTD/svg11.dtd"><svg t="1736865365493" class="icon" viewBox="0 0 1024 1024" version="1.1" xmlns="http://www.w3.org/2000/svg" p-id="11288" xmlns:xlink="http://www.w3.org/1999/xlink" width="200" height="200"><path d="M597.6576 114.5344l72.1408 146.176c13.7728 27.904 40.448 47.2576 71.2192 51.7632l161.28 23.4496c77.6192 11.264 108.5952 106.6496 52.4288 161.3824l-116.6848 113.7664a94.53568 94.53568 0 0 0-27.1872 83.7632l27.5456 160.6144c13.2608 77.312-67.8912 136.2432-137.2672 99.7376l-144.2816-75.8272a94.63808 94.63808 0 0 0-88.064 0l-144.2816 75.8272c-69.4272 36.5056-150.528-22.4256-137.2672-99.7376l27.5456-160.6144a94.72 94.72 0 0 0-27.1872-83.7632l-116.736-113.8176C14.6944 442.5216 45.6704 347.136 123.2896 335.872l161.28-23.4496c30.8224-4.4544 57.4464-23.8592 71.2192-51.7632l72.1408-146.176c34.7136-70.2976 135.0144-70.2976 169.728 0.0512z" fill="#1296db" p-id="11289" data-spm-anchor-id="a313x.search_index.0.i5.3ddb3a81lzHVbr" class="selected"></path><path d="M521.5232 727.2448c-92.3136 0-167.424-75.1104-167.424-167.424a39.68 39.68 0 0 1 79.36 0c0 48.5888 39.5264 88.064 88.064 88.064s88.064-39.5264 88.064-88.064a39.68 39.68 0 0 1 79.36 0c0 92.3136-75.1104 167.424-167.424 167.424z" fill="#515151" p-id="11290"></path></svg>