<?xml version="1.0" standalone="no"?><!DOCTYPE svg PUBLIC "-//W3C//DTD SVG 1.1//EN"
        "http://www.w3.org/Graphics/SVG/1.1/DTD/svg11.dtd">
<svg t="1739261192715" class="icon" viewBox="0 0 1024 1024" version="1.1" xmlns="http://www.w3.org/2000/svg"
     p-id="10473" xmlns:xlink="http://www.w3.org/1999/xlink" width="24" height="24">
    <path d="M199.552 824.448L824.448 824.448c49.30133333 0 89.26933333-39.968 89.26933333-89.26933333l0-446.35733334c0-49.30133333-39.968-89.26933333-89.26933333-89.26933333l-624.896 0c-49.30133333 0-89.26933333 39.968-89.26933333 89.26933333L110.28266667 735.17866667c0 49.30133333 39.95733334 89.26933333 89.26933333 89.26933333zM685.01333333 502.67733333l-45.90933333-45.90933333c-13.07733333-13.06666667-13.07733333-34.272 0-47.33866667 13.07733333-13.07733333 34.272-13.07733333 47.33866667 0l55.23199999 55.232 31.61600001 31.616c8.68266667 8.68266667 8.68266667 22.76266667 0 31.44533334l-31.61600001 31.616-55.23199999 55.232c-13.07733333 13.06666667-34.27199999 13.06666667-47.33866667 0-13.07733333-13.07733333-13.07733333-34.272 0-47.33866667l45.90933333-45.90933333c5.152-5.152 5.152-13.49333333 0-18.64533334z m-417.45066666-6.4l31.62666665-31.616 55.23200001-55.232c13.07733333-13.07733333 34.272-13.07733333 47.33866667 0 13.06666667 13.06666667 13.06666667 34.27199999 0 47.33866667l-45.90933333 45.90933332c-5.14133333 5.152-5.14133333 13.49333333 0 18.64533336l45.90933333 45.90933332c13.06666667 13.07733333 13.06666667 34.27199999 0 47.33866667-13.07733333 13.06666667-34.27199999 13.06666667-47.33866667 0l-55.23200001-55.232-31.62666665-31.616c-8.68266667-8.68266667-8.68266667-22.76266667 0-31.44533334z"
          p-id="10474" fill="#ffffff"></path>
</svg>