<?xml version="1.0" standalone="no"?><!DOCTYPE svg PUBLIC "-//W3C//DTD SVG 1.1//EN" "http://www.w3.org/Graphics/SVG/1.1/DTD/svg11.dtd"><svg t="1736872175017" class="icon" viewBox="0 0 1024 1024" version="1.1" xmlns="http://www.w3.org/2000/svg" p-id="1575" xmlns:xlink="http://www.w3.org/1999/xlink" width="200" height="200"><path d="M502.8 109.6c-134.4 0-242 109.2-242 242 0 89.9 41.3 166.6 115.2 207.9-154.6 47.1-264.3 195.9-264.3 327.2 0 7.4 3 14.5 8.3 19.7 5.3 5.2 12.4 8.1 19.8 8.1 15.4 0.1 28-12.3 28.1-27.8 0-158.9 176.4-293 316.3-293 8.3 0 13.5 5.7 18.6 0 133.4-1.2 242-109.9 242-242 0-133-107.6-242.1-242-242.1z m0 428.2c-103.2 0-186.2-84.1-186.2-186.2s83-186.2 186.2-186.2C606 165.4 689 249.5 689 351.6s-83 186.2-186.2 186.2zM884.3 780H586.7c-15.5 0-28-12.6-28-28 0-15.5 12.6-28 28-28h297.7c15.5 0 28 12.6 28 28 0 15.5-12.6 28-28.1 28z" fill="#666666" p-id="1576"></path></svg>